<?xml version="1.0" standalone="no"?><svg xmlns="http://www.w3.org/2000/svg" viewBox="0 0 1440 320"><path fill="#0099ff" fill-opacity="1" d="M0,128L40,117.3C80,107,160,85,240,106.7C320,128,400,192,480,208C560,224,640,192,720,170.7C800,149,880,139,960,122.7C1040,107,1120,85,1200,74.7C1280,64,1360,64,1400,64L1440,64L1440,320L1400,320C1360,320,1280,320,1200,320C1120,320,1040,320,960,320C880,320,800,320,720,320C640,320,560,320,480,320C400,320,320,320,240,320C160,320,80,320,40,320L0,320Z"></path></svg>